<svg xmlns="http://www.w3.org/2000/svg"  viewBox="0 0 48 48" width="48px" height="48px"><path fill="#d6e5e5" d="M43.48,37.246c0-4.804,0.214-4.386,0.185-9.82c-0.005-0.871,0.076-3.731,0.014-4.599	c-0.29-4.085-0.045-6.165-0.186-8.305c-0.189-2.869,1.127-6.411-1.323-8.573c-1.606-1.417-4.193-1.29-5.385-1.265	c-4.477,0.095-9.617,0.56-13.402,0.604c-7.528,0.086-7.241-0.582-13.634-0.753C8.489,4.5,7.403,4.825,6.278,5.712	c-1.016,0.801-2.049,2.6-2.193,6.601c-0.175,4.86-0.266,8.264,0.081,13.132c-0.02,0.84-0.04,1.676-0.061,2.515	c-0.094,1.526,0.175,3.031,0.199,4.551c0.02,1.225,0.057,3.94,0.159,5.194s0.569,4.311,2.297,5.133	c0.484,0.231,1.026,0.303,1.548,0.427c0.98,0.233,7.274-0.203,7.787-0.254c4.804-0.48,4.804,0,9.609,0c1.334,0,5.393-0.027,6.726,0	c3.375,0.069,5.175,0.09,6.246,0C42.347,42.702,43.48,40.129,43.48,37.246"/><path fill="#fdd14f" d="M42.178,5.948c-1.606-1.417-4.193-1.29-5.385-1.265c-4.477,0.095-9.617,0.56-13.402,0.604	c-7.528,0.086-7.241-0.582-13.634-0.753C8.497,4.5,7.411,4.824,6.286,5.711c-1.016,0.801-2.049,2.6-2.193,6.601	c-0.057,1.593-0.103,3.023-0.13,4.406l0.475,0.252c6.173,0.529,9.315,0.203,15.614,0.351c1.964,0.046,9.256-0.349,11.221-0.351	c4.578-0.004,6.945-0.055,12.016,0.28l0.257-0.134c0.008-0.936,0.011-1.763-0.044-2.596C43.312,11.653,44.628,8.11,42.178,5.948z"/><path fill="#010101" d="M9.574,43.833c-0.631,0-1.127-0.023-1.374-0.082l-0.376-0.083c-0.419-0.088-0.852-0.18-1.27-0.379	c-2.056-0.978-2.495-4.49-2.581-5.544c-0.097-1.194-0.136-3.66-0.156-4.985l-0.004-0.241c-0.01-0.601-0.059-1.2-0.107-1.799	c-0.074-0.906-0.15-1.844-0.091-2.791l0.06-2.496c-0.343-4.783-0.259-8.157-0.08-13.138c0.125-3.481,0.927-5.829,2.383-6.977	c1.16-0.914,2.372-1.31,3.792-1.285c2.788,0.075,4.301,0.242,5.764,0.403c1.858,0.205,3.609,0.396,7.852,0.351	c1.915-0.021,4.162-0.151,6.541-0.288c2.285-0.132,4.648-0.269,6.856-0.315l0.161-0.004c1.26-0.03,3.883-0.091,5.566,1.394	c1.941,1.713,1.746,4.217,1.574,6.425c-0.069,0.88-0.133,1.711-0.082,2.49c0.059,0.901,0.052,1.779,0.043,2.797	c-0.013,1.464-0.026,3.124,0.142,5.506c0.043,0.606,0.021,2.094,0.002,3.289c-0.009,0.567-0.017,1.061-0.015,1.343	c0.015,2.891-0.039,4.155-0.091,5.379c-0.046,1.079-0.094,2.195-0.094,4.443c0,3.754-1.869,5.979-5.262,6.264	c-1.074,0.09-2.811,0.073-6.298,0.002c-0.958-0.02-3.326-0.012-5.073-0.005l-1.643,0.005c-1.851,0-2.976-0.069-3.969-0.131	c-1.545-0.096-2.662-0.164-5.59,0.128C16.103,43.514,11.917,43.833,9.574,43.833z M9.588,5.031c-1.127,0-2.056,0.334-2.992,1.072	C5.761,6.762,4.735,8.377,4.593,12.33c-0.178,4.948-0.261,8.298,0.08,13.079l-0.059,2.562c-0.055,0.895,0.015,1.756,0.089,2.668	c0.05,0.62,0.1,1.24,0.11,1.863l0.004,0.241c0.021,1.313,0.059,3.759,0.153,4.921c0.154,1.893,0.764,4.127,2.013,4.722	c0.311,0.147,0.668,0.224,1.047,0.303c0.134,0.028,0.268,0.058,0.401,0.089c0.844,0.201,6.909-0.194,7.621-0.265	c3.009-0.303,4.159-0.231,5.752-0.132c0.979,0.061,2.087,0.129,3.907,0.129l1.639-0.005c1.757-0.005,4.136-0.014,5.097,0.005	c3.451,0.071,5.166,0.088,6.194,0.002c2.884-0.242,4.346-2.015,4.346-5.268c0-2.27,0.048-3.396,0.095-4.486	c0.052-1.211,0.106-2.464,0.091-5.33c-0.001-0.287,0.006-0.788,0.015-1.363c0.017-1.114,0.041-2.641,0-3.204	c-0.172-2.421-0.157-4.175-0.145-5.584c0.008-0.998,0.016-1.859-0.042-2.723c-0.056-0.852,0.015-1.758,0.083-2.634	c0.169-2.168,0.329-4.215-1.238-5.598c-1.39-1.226-3.66-1.171-4.88-1.144l-0.163,0.004c-2.19,0.046-4.544,0.182-6.82,0.313	c-2.391,0.138-4.65,0.268-6.587,0.29c-4.305,0.049-6.085-0.148-7.973-0.356c-1.442-0.159-2.935-0.324-5.681-0.397	C9.691,5.031,9.639,5.031,9.588,5.031z"/><path fill="#010101" d="M8.429,21.521c-0.215,0-0.426-0.079-0.583-0.235c-0.105-0.106-0.182-0.241-0.229-0.403	c-0.104-0.36-0.029-0.743,0.197-0.998c0.155-0.176,0.381-0.284,0.62-0.297c0.224-0.012,0.434,0.061,0.592,0.206	c0.085,0.078,0.137,0.159,0.175,0.218c0.013,0.02,0.024,0.039,0.033,0.06c0.073,0.079,0.121,0.182,0.13,0.297	c0.03,0.363-0.089,0.696-0.327,0.915C8.866,21.441,8.646,21.521,8.429,21.521z"/><path fill="#010101" d="M17.265,21.396c-0.275,0-0.56-0.13-0.697-0.354c-0.135-0.223-0.144-0.454-0.15-0.606	c-0.01-0.266,0.147-0.521,0.286-0.657c0.183-0.186,0.472-0.233,0.714-0.118c0,0,0.172,0.099,0.221,0.173	c0.032,0.049,0.107,0.215,0.107,0.215c0.079,0.094,0.171,0.223,0.219,0.389c0.1,0.344-0.041,0.709-0.333,0.869	C17.522,21.368,17.395,21.396,17.265,21.396z"/><path fill="#010101" d="M24.831,21.418c-0.167,0-0.33-0.059-0.473-0.171c-0.109-0.048-0.23-0.232-0.245-0.443	c-0.021-0.293,0.156-0.559,0.341-0.692c0.302-0.216,0.741-0.178,0.999,0.09c0.082,0.085,0.127,0.191,0.138,0.3	c0.055,0.129,0.054,0.279-0.018,0.415c-0.14,0.263-0.35,0.436-0.594,0.486C24.93,21.413,24.88,21.418,24.831,21.418z"/><path fill="#010101" d="M39.712,20.97l-0.088-0.016c-0.371-0.067-0.641-0.401-0.629-0.777	c0.013-0.373,0.312-0.696,0.682-0.736c0.123-0.015,0.24,0.019,0.334,0.083c0.131,0.035,0.244,0.124,0.305,0.261	c0.13,0.289,0.136,0.572,0.017,0.797c-0.104,0.198-0.293,0.331-0.533,0.373L39.712,20.97z"/><path fill="#010101" d="M32.636,21.194c-0.101,0-0.209-0.021-0.326-0.07l-0.134-0.084c-0.229-0.201-0.312-0.48-0.221-0.749	c0.118-0.353,0.512-0.566,0.822-0.59c0.282-0.023,0.516,0.187,0.535,0.463c0.002,0.027,0.002,0.054,0,0.08	c0.062,0.252,0.006,0.527-0.159,0.718C33.042,21.089,32.861,21.194,32.636,21.194z"/><path fill="#010101" d="M28.081,38.456c-2.793,0-5.525-0.091-8.204-0.181c-5.149-0.175-10.013-0.335-15.093,0.105	c-0.283,0.017-0.518-0.18-0.542-0.455c-0.024-0.274,0.18-0.518,0.455-0.541c5.14-0.447,10.033-0.281,15.213-0.109	c4.564,0.154,9.283,0.312,14.175,0.01c0.773-0.048,1.387-0.053,1.979-0.057c0.758-0.006,1.473-0.011,2.449-0.11	c1.45-0.146,3.176-0.29,5-0.205c0.276,0.012,0.489,0.245,0.477,0.521s-0.241,0.514-0.522,0.477c-1.756-0.076-3.44,0.059-4.854,0.201	c-1.022,0.104-1.761,0.11-2.543,0.116c-0.575,0.004-1.172,0.008-1.924,0.055C32.092,38.41,30.071,38.456,28.081,38.456z"/><path fill="#010101" d="M36.566,32.446c-0.192,0-0.385-0.001-0.582-0.004c-2.427-0.035-3.999-0.133-5.519-0.228	c-1.511-0.094-3.073-0.191-5.48-0.226c-0.893-0.022-2.075,0.088-3.333,0.195c-1.486,0.126-3.17,0.261-4.732,0.258	c-0.595-0.004-1.759-0.076-2.884-0.146c-0.973-0.06-1.917-0.118-2.422-0.128c-0.82-0.014-1.595,0.002-2.356,0.019	c-1.631,0.038-3.169,0.071-4.918-0.209c-0.272-0.044-0.458-0.301-0.414-0.573c0.044-0.273,0.292-0.458,0.573-0.415	c1.659,0.268,3.154,0.233,4.737,0.198c0.773-0.019,1.562-0.034,2.398-0.02c0.514,0.01,1.474,0.069,2.464,0.13	c1.113,0.068,2.263,0.14,2.83,0.144c1.531-0.002,3.176-0.131,4.64-0.255c1.285-0.109,2.494-0.214,3.433-0.198	c2.432,0.034,4.006,0.133,5.528,0.228c1.508,0.094,3.068,0.191,5.471,0.226c2.446,0.036,4.531-0.157,7.44-0.455	c0.27-0.033,0.52,0.171,0.548,0.446c0.028,0.274-0.172,0.521-0.447,0.548C40.829,32.26,38.818,32.446,36.566,32.446z"/><path fill="#010101" d="M19.295,25.873c-2.08,0-3.939-0.046-5.752-0.091c-3.031-0.074-5.892-0.145-9.38,0.009	c-0.253,0.037-0.509-0.201-0.521-0.477c-0.012-0.276,0.202-0.51,0.478-0.521c3.521-0.157,6.399-0.087,9.449-0.011	c2.416,0.061,4.914,0.124,7.9,0.073c6.294-0.102,15.379-0.311,22.001-0.593c0.262,0.011,0.509,0.202,0.521,0.479	c0.012,0.276-0.202,0.51-0.479,0.521c-6.632,0.281-15.727,0.491-22.027,0.593C20.726,25.868,19.998,25.873,19.295,25.873z"/><path fill="#010101" d="M20.424,17.825c-0.144,0-0.272-0.001-0.384-0.004c-2.257-0.053-4.081-0.045-5.842-0.037	c-3.125,0.016-5.826,0.025-9.802-0.315c-0.275-0.023-0.479-0.266-0.456-0.541c0.023-0.275,0.263-0.477,0.541-0.455	c3.933,0.337,6.613,0.325,9.713,0.312c1.77-0.009,3.599-0.017,5.87,0.037c1.088,0.031,3.91-0.089,6.404-0.19	c2.021-0.082,3.93-0.159,4.805-0.16l1.538-0.003c3.624-0.005,6.022-0.013,10.512,0.284c0.275,0.019,0.484,0.257,0.466,0.532	c-0.019,0.275-0.257,0.487-0.532,0.466c-4.456-0.295-6.84-0.29-10.443-0.282l-1.539,0.003c-0.855,0.001-2.754,0.078-4.765,0.159	C24.142,17.727,21.703,17.825,20.424,17.825z"/><path fill="#010101" d="M12.876,21.346c-0.222,0-0.361-0.104-0.428-0.171c0,0-0.097-0.112-0.119-0.155	c-0.057-0.107-0.054-0.264-0.054-0.264c-0.029-0.487,0.201-0.869,0.585-0.965c0.008-0.002,0.016-0.003,0.023-0.005	c0.213-0.059,0.447-0.008,0.626,0.143c0.221,0.185,0.322,0.478,0.259,0.747c-0.083,0.354-0.409,0.62-0.809,0.665	C12.931,21.344,12.903,21.346,12.876,21.346z"/><path fill="#010101" d="M21.163,21.163c-0.115,0-0.235-0.025-0.352-0.076c-0.351-0.152-0.575-0.489-0.555-0.836	c0.014-0.263,0.184-0.508,0.432-0.624c0.191-0.087,0.405-0.089,0.584-0.002c0.084,0.026,0.135,0.058,0.21,0.11	c0.239,0.162,0.365,0.378,0.391,0.613c0.024,0.226-0.045,0.443-0.191,0.598C21.548,21.089,21.362,21.163,21.163,21.163z M20.782,20.491c0.016,0.012,0.034,0.022,0.052,0.032L20.782,20.491z"/><path fill="#010101" d="M28.685,20.999c-0.212,0-0.415-0.085-0.552-0.237c-0.214-0.234-0.245-0.601-0.072-0.869	c0.152-0.236,0.437-0.364,0.711-0.322c0.223-0.017,0.439,0.079,0.567,0.245c0.098,0.129,0.191,0.353,0.072,0.691	c-0.085,0.243-0.297,0.422-0.567,0.476C28.791,20.993,28.738,20.999,28.685,20.999z"/><path fill="#010101" d="M36.305,21.336c-0.084,0-0.189-0.01-0.3-0.055c-0.274-0.113-0.438-0.388-0.398-0.669	c0.033-0.263,0.13-0.464,0.29-0.604c0.096-0.121,0.236-0.203,0.399-0.229c0.243-0.041,0.499,0.056,0.651,0.243	c0.112,0.139,0.229,0.384,0.143,0.762l-0.025,0.111l-0.109,0.182c-0.188,0.235-0.466,0.251-0.558,0.256	C36.371,21.335,36.339,21.336,36.305,21.336z M36.27,20.354h0.01H36.27z"/></svg>